<?xml version="1.0" encoding="UTF-8"?>
<svg version="1.1" xmlns="http://www.w3.org/2000/svg" width="203" height="148">
<path d="M0 0 C66.99 0 133.98 0 203 0 C203 48.84 203 97.68 203 148 C136.01 148 69.02 148 0 148 C0 99.16 0 50.32 0 0 Z " fill="#FEFEFE" transform="translate(0,0)"/>
<path d="M0 0 C4.19945411 3.97245659 7.03224724 7.68862406 8.25 13.375 C8.80208111 15.48693428 8.80208111 15.48693428 10.3125 17.1875 C13.83591751 18.54802755 17.26053689 19.37707192 20.96484375 20.10546875 C25.04251895 21.42345712 26.24762667 22.44962712 28.3125 26.1875 C28.88943156 28.9619614 29.00689994 31.6719788 29.0625 34.5 C29.09214844 35.24056641 29.12179688 35.98113281 29.15234375 36.74414062 C29.22255845 38.55802046 29.26985048 40.37276278 29.3125 42.1875 C30.116875 42.331875 30.92125 42.47625 31.75 42.625 C34.3125 43.1875 34.3125 43.1875 35.3125 44.1875 C35.57836034 48.17540511 35.6231409 51.1890114 34.4375 55 C31.97255174 57.53744674 30.69175317 57.71183599 27.3125 58.5 C23.5784696 59.32669442 23.5784696 59.32669442 21.16796875 62.04296875 C20.72756738 63.45688895 20.32158216 64.88205517 19.953125 66.31640625 C19.3125 68.1875 19.3125 68.1875 16.75 70.125 C15.945625 70.475625 15.14125 70.82625 14.3125 71.1875 C13.3225 71.6825 13.3225 71.6825 12.3125 72.1875 C7.6692744 72.75397352 4.35267573 72.95029553 0.5 70.125 C-4.55905284 67.04988945 -8.99221916 68.34154824 -14.6875 69.1875 C-15.43966797 69.29545898 -16.19183594 69.40341797 -16.96679688 69.51464844 C-22.06827474 70.24719956 -27.16214945 71.02369267 -32.25488281 71.81445312 C-37.7254119 72.65337007 -43.2070909 73.41625038 -48.6875 74.1875 C-48.98914063 74.94933594 -49.29078125 75.71117188 -49.6015625 76.49609375 C-51.59885135 81.44620891 -53.42752842 85.80458139 -57.6875 89.1875 C-64.08387011 91.31962337 -71.52968658 90.72307023 -77.6875 88.1875 C-80.00468077 85.2723371 -80.6875 83.92167994 -80.6875 80.1875 C-85.47467542 80.13806535 -90.26170227 80.10176418 -95.04907227 80.07763672 C-96.67767932 80.06757858 -98.30626832 80.05393042 -99.93481445 80.03662109 C-102.27559872 80.01236426 -104.61614424 80.00101517 -106.95703125 79.9921875 C-107.68525589 79.98186493 -108.41348053 79.97154236 -109.16377258 79.96090698 C-112.90025069 79.96007751 -114.49425056 80.05866704 -117.6875 82.1875 C-122.83243415 82.87242931 -127.27292172 83.00795541 -131.8125 80.375 C-133.6875 78.1875 -133.6875 78.1875 -134.6875 75.1875 C-136.68766466 73.97867904 -136.68766466 73.97867904 -138.6875 73.1875 C-137.6975 72.6925 -137.6975 72.6925 -136.6875 72.1875 C-135.80191406 72.48398438 -134.91632813 72.78046875 -134.00390625 73.0859375 C-119.1837684 78.00852746 -100.13618205 75.28997621 -84.6875 75.1875 C-85.6775 74.5275 -86.6675 73.8675 -87.6875 73.1875 C-83.2325 72.1975 -83.2325 72.1975 -78.6875 71.1875 C-78.6875 70.5275 -78.6875 69.8675 -78.6875 69.1875 C-79.58662109 69.20490234 -79.58662109 69.20490234 -80.50390625 69.22265625 C-83.89937956 69.25646608 -87.29235892 69.23390457 -90.6875 69.1875 C-91.51362793 69.17638184 -92.33975586 69.16526367 -93.19091797 69.15380859 C-106.39566555 68.9183917 -118.81747007 67.59475939 -131.68798828 64.62890625 C-134.33862001 64.04376069 -137.00509095 63.59951803 -139.6875 63.1875 C-139.1925 62.1975 -139.1925 62.1975 -138.6875 61.1875 C-138.57869408 56.01177445 -138.57869408 56.01177445 -138.609375 50.8359375 C-138.46960795 45.16538848 -136.75162121 42.06668728 -132.81787109 38.01367188 C-129.21086127 34.92171296 -125.250907 32.70873025 -121.0625 30.5 C-112.58564479 25.95320382 -107.08451669 20.90535017 -101.25 13.3125 C-100.2726245 12.0660226 -99.2947655 10.81992416 -98.31640625 9.57421875 C-96.85197356 7.70046301 -95.42234291 5.82127126 -94.02734375 3.89453125 C-87.69130612 -4.4734718 -78.19623088 -6.23594424 -68.3125 -7.625 C-46.40325523 -10.3201273 -19.1687766 -12.92777957 0 0 Z " fill="#464242" transform="translate(154.6875,32.8125)"/>
<path d="M0 0 C4.19945411 3.97245659 7.03224724 7.68862406 8.25 13.375 C8.80208111 15.48693428 8.80208111 15.48693428 10.3125 17.1875 C13.83591751 18.54802755 17.26053689 19.37707192 20.96484375 20.10546875 C24.93761195 21.38954902 26.16615326 22.65725573 28.3125 26.1875 C28.921875 28.22265625 28.921875 28.22265625 29.0625 30.25 C29.11792969 31.013125 29.17335937 31.77625 29.23046875 32.5625 C29.38285775 37.43894789 29.38678279 42.30959651 29.3125 47.1875 C25.8475 47.6825 25.8475 47.6825 22.3125 48.1875 C21.9 47.1975 21.4875 46.2075 21.0625 45.1875 C20.04228165 43.44937065 20.04228165 43.44937065 18.3125 42.1875 C14.19262541 41.34165983 10.44126028 41.41733854 6.3125 42.1875 C3.31425463 44.67384982 2.51981427 46.65284741 1.125 50.25 C-1.47461487 54.46316893 -5.04640347 55.75817679 -9.6875 57.1875 C-10.6775 57.1875 -11.6675 57.1875 -12.6875 57.1875 C-13.0175 46.6275 -13.3475 36.0675 -13.6875 25.1875 C-10.0575 24.8575 -6.4275 24.5275 -2.6875 24.1875 C-2.6875 23.5275 -2.6875 22.8675 -2.6875 22.1875 C-0.3775 21.5275 1.9325 20.8675 4.3125 20.1875 C3.68970331 18.60329871 3.06416599 17.02017469 2.4375 15.4375 C2.08945313 14.55578125 1.74140625 13.6740625 1.3828125 12.765625 C-0.34881474 7.9139428 -0.34881474 7.9139428 -4.25 5 C-5.4565625 4.5978125 -5.4565625 4.5978125 -6.6875 4.1875 C-7.0175 3.8575 -7.3475 3.5275 -7.6875 3.1875 C-9.03497084 2.95674918 -10.39127565 2.77596937 -11.75 2.625 C-13.049375 2.480625 -14.34875 2.33625 -15.6875 2.1875 C-15.1925 3.734375 -15.1925 3.734375 -14.6875 5.3125 C-13.10134909 11.50072256 -13.52726747 17.84941329 -13.6875 24.1875 C-16.13617197 20.51449204 -16.61060676 17.01507573 -17.3125 12.75 C-17.51359375 11.6043457 -17.51359375 11.6043457 -17.71875 10.43554688 C-18.31941257 6.91431579 -18.6875 3.78731922 -18.6875 0.1875 C-19.3475 0.1875 -20.0075 0.1875 -20.6875 0.1875 C-20.378125 0.868125 -20.06875 1.54875 -19.75 2.25 C-18.53512487 5.60877242 -17.95132122 8.62591356 -17.6875 12.1875 C-18.6775 13.6725 -18.6775 13.6725 -19.6875 15.1875 C-20.6775 11.2275 -21.6675 7.2675 -22.6875 3.1875 C-25.04198675 3.13295591 -27.39517875 3.0935721 -29.75 3.0625 C-31.06097656 3.03929687 -32.37195313 3.01609375 -33.72265625 2.9921875 C-37.80574299 3.19332478 -40.83749053 3.91584538 -44.6875 5.1875 C-45.1825 3.7025 -45.1825 3.7025 -45.6875 2.1875 C-46.491875 3.0125 -47.29625 3.8375 -48.125 4.6875 C-50.6875 7.1875 -50.6875 7.1875 -51.6875 7.1875 C-51.6875 4.8775 -51.6875 2.5675 -51.6875 0.1875 C-61.84292781 -1.47052903 -78.42298435 -3.86305785 -87.34814453 2.34204102 C-91.84044636 5.99426397 -95.23039785 10.17003453 -98.5625 14.875 C-99.28953125 15.86983398 -99.28953125 15.86983398 -100.03125 16.88476562 C-102.05413953 19.69025347 -103.58381217 21.87643652 -104.6875 25.1875 C-103.43042236 25.17009766 -103.43042236 25.17009766 -102.14794922 25.15234375 C-93.31730287 25.08395539 -84.61811314 25.49795992 -75.8125 26.1875 C-73.90404297 26.33058594 -73.90404297 26.33058594 -71.95703125 26.4765625 C-68.86680458 26.70891037 -65.77701785 26.94594069 -62.6875 27.1875 C-62.38569824 26.43049805 -62.08389648 25.67349609 -61.77294922 24.89355469 C-60.49959991 21.71905991 -59.18126922 18.57219427 -57.8125 15.4375 C-57.32007812 14.28765625 -56.82765625 13.1378125 -56.3203125 11.953125 C-54.6875 9.1875 -54.6875 9.1875 -52.4921875 8.296875 C-51.59886719 8.24273437 -51.59886719 8.24273437 -50.6875 8.1875 C-50.83053665 10.35435309 -50.97707551 12.5209751 -51.125 14.6875 C-51.24681641 16.49734375 -51.24681641 16.49734375 -51.37109375 18.34375 C-51.69697368 22.30258765 -52.19480579 26.24594629 -52.6875 30.1875 C-60.6075 32.6625 -60.6075 32.6625 -68.6875 35.1875 C-65.6453164 35.1875 -63.01687368 34.10172571 -60.125 33.1875 C-53.78472222 31.1875 -53.78472222 31.1875 -52.6875 31.1875 C-51.98852181 35.62327171 -51.30528239 40.06132576 -50.625 44.5 C-50.32625977 46.39395508 -50.32625977 46.39395508 -50.02148438 48.32617188 C-49.83779297 49.53466797 -49.65410156 50.74316406 -49.46484375 51.98828125 C-49.29202881 53.10372314 -49.11921387 54.21916504 -48.94116211 55.3684082 C-48.6875 58.1875 -48.6875 58.1875 -49.6875 61.1875 C-49.914375 60.589375 -50.14125 59.99125 -50.375 59.375 C-52.11179529 56.48034118 -53.6058036 55.55714285 -56.6875 54.1875 C-60.83310424 53.65987764 -63.06213031 53.87481516 -66.8125 55.75 C-70.96229806 59.26830705 -73.95921963 63.00265889 -75.6875 68.1875 C-115.78808435 68.99025269 -115.78808435 68.99025269 -133.6875 64.1875 C-135.68312646 63.82891087 -137.68188762 63.48520809 -139.6875 63.1875 C-139.1925 62.1975 -139.1925 62.1975 -138.6875 61.1875 C-138.57869408 56.01177445 -138.57869408 56.01177445 -138.609375 50.8359375 C-138.46960795 45.16538848 -136.75162121 42.06668728 -132.81787109 38.01367188 C-129.21086127 34.92171296 -125.250907 32.70873025 -121.0625 30.5 C-112.58564479 25.95320382 -107.08451669 20.90535017 -101.25 13.3125 C-100.2726245 12.0660226 -99.2947655 10.81992416 -98.31640625 9.57421875 C-96.85197356 7.70046301 -95.42234291 5.82127126 -94.02734375 3.89453125 C-87.69130612 -4.4734718 -78.19623088 -6.23594424 -68.3125 -7.625 C-46.40325523 -10.3201273 -19.1687766 -12.92777957 0 0 Z " fill="#BB3136" transform="translate(154.6875,32.8125)"/>
<path d="M0 0 C0.69897819 4.43577171 1.38221761 8.87382576 2.0625 13.3125 C2.26166016 14.57513672 2.46082031 15.83777344 2.66601562 17.13867188 C2.84970703 18.34716797 3.03339844 19.55566406 3.22265625 20.80078125 C3.39547119 21.91622314 3.56828613 23.03166504 3.74633789 24.1809082 C4 27 4 27 3 30 C2.773125 29.401875 2.54625 28.80375 2.3125 28.1875 C0.57570471 25.29284118 -0.9183036 24.36964285 -4 23 C-8.14560424 22.47237764 -10.37463031 22.68731516 -14.125 24.5625 C-18.27479806 28.08080705 -21.27171963 31.81515889 -23 37 C-63.10058435 37.80275269 -63.10058435 37.80275269 -81 33 C-82.99562646 32.64141087 -84.99438762 32.29770809 -87 32 C-86.67 31.34 -86.34 30.68 -86 30 C-85.76754701 26.40251332 -85.60499713 22.8115009 -85.48242188 19.20898438 C-85.30632091 15.3513764 -85.18474795 13.27712193 -83 10 C-79.63817316 8.97683531 -77.83982625 8.60218757 -74.625 10.125 C-73 12 -73 12 -72.75 14.6875 C-72.8325 15.450625 -72.915 16.21375 -73 17 C-66.54194917 18.10259404 -60.10241808 18.32574332 -53.5625 18.5625 C-52.44939453 18.60568359 -51.33628906 18.64886719 -50.18945312 18.69335938 C-47.45974156 18.79879888 -44.72994857 18.90092029 -42 19 C-42 17.68 -42 16.36 -42 15 C-39.61345946 11.65423899 -36.65079582 9.28352352 -32.56640625 8.58203125 C-30.31798919 8.56404391 -28.21675084 8.62419889 -26 9 C-25 10 -25 10 -24.8125 13.375 C-25 17 -25 17 -27 20 C-24.5595792 16.534512 -24.5595792 16.534512 -24.125 12.4375 C-24 10 -24 10 -21.93359375 8.015625 C-18.68183164 5.78139164 -15.66934289 4.57773443 -11.9375 3.3125 C-10.72964844 2.89613281 -9.52179688 2.47976562 -8.27734375 2.05078125 C-1.88104089 0 -1.88104089 0 0 0 Z " fill="#CD2F35" transform="translate(102,64)"/>
<path d="M0 0 C6.41688675 -0.10349817 12.62694402 0.25492456 19 1 C19 1.33 19 1.66 19 2 C17.35 2 15.7 2 14 2 C15.32 8.93 16.64 15.86 18 23 C18.08084859 16.53211242 17.96509044 10.39372417 17 4 C21.47765047 3.69119652 24.09621378 3.57468884 28.1875 5.5 C33.30634235 10.05008209 36.47875653 15.05008711 37 22 C34.35261084 23.4606285 33.10551666 24 30 24 C30 24.66 30 25.32 30 26 C26.58890111 27.70554945 22.7523683 27.05360526 19 27 C19.24556641 28.85431641 19.24556641 28.85431641 19.49609375 30.74609375 C20.1379312 36.52263078 20.11011588 42.25702584 20.0625 48.0625 C20.05798828 49.11888672 20.05347656 50.17527344 20.04882812 51.26367188 C20.03715934 53.84247288 20.0192285 56.42124428 20 59 C24.29 57.35 28.58 55.7 33 54 C32.67 56.31 32.34 58.62 32 61 C29.36 61.33 26.72 61.66 24 62 C24 62.66 24 63.32 24 64 C19.79420765 65.01089575 15.58499861 66.00678035 11.375 67 C10.18519531 67.28617187 8.99539062 67.57234375 7.76953125 67.8671875 C6.61582031 68.13789062 5.46210937 68.40859375 4.2734375 68.6875 C3.21560059 68.93886719 2.15776367 69.19023438 1.06787109 69.44921875 C-2.0235672 70.00423107 -4.86648204 70.09856413 -8 70 C-8 69.67 -8 69.34 -8 69 C-7.21625 68.896875 -6.4325 68.79375 -5.625 68.6875 C-2.66954819 68.22404978 -2.66954819 68.22404978 -1 65 C0.97119141 64.10864258 0.97119141 64.10864258 3.3515625 63.39453125 C4.11807129 63.15839111 4.88458008 62.92225098 5.67431641 62.67895508 C6.64804199 62.3930249 7.62176758 62.10709473 8.625 61.8125 C11.71875 60.884375 14.8125 59.95625 18 59 C18 51.08 18 43.16 18 35 C16.515 35.495 16.515 35.495 15 36 C13.60560336 36.06665376 12.20830125 36.08538199 10.8125 36.0625 C9.554375 36.041875 8.29625 36.02125 7 36 C7.185625 35.360625 7.37125 34.72125 7.5625 34.0625 C7.7790625 33.0415625 7.7790625 33.0415625 8 32 C6.03177114 30.03177114 2.65191291 30.33751619 0 30 C0 27.69 0 25.38 0 23 C-0.99 23 -1.98 23 -3 23 C-2.34 25.31 -1.68 27.62 -1 30 C-7.625 30.25 -7.625 30.25 -11 28 C-11.6875 25.375 -11.6875 25.375 -12 23 C-12 24.65 -12 26.3 -12 28 C-12.99 27.67 -13.98 27.34 -15 27 C-15.3332882 19.59359564 -15.24523844 13.7401106 -12 7 C-8.09912497 3.09912497 -2.56677901 3.8117545 2.6875 3.75 C3.36361328 3.729375 4.03972656 3.70875 4.73632812 3.6875 C6.69921875 3.671875 6.69921875 3.671875 10 4 C12.18975773 7.28463659 12.99806563 10.20696275 14 14 C13.34 10.37 12.68 6.74 12 3 C6.06 2.01 6.06 2.01 0 1 C0 0.67 0 0.34 0 0 Z " fill="#6B2024" transform="translate(122,31)"/>
<path d="M0 0 C0.66 0.33 1.32 0.66 2 1 C2.4140625 3.72265625 2.4140625 3.72265625 2.625 7.0625 C2.69976562 8.16722656 2.77453125 9.27195312 2.8515625 10.41015625 C2.90054688 11.26480469 2.94953125 12.11945313 3 13 C3.99 13 4.98 13 6 13 C6 12.34 6 11.68 6 11 C9.102091 10.60626791 12.20670709 10.23827686 15.3125 9.875 C16.63411133 9.70677734 16.63411133 9.70677734 17.98242188 9.53515625 C19.25375977 9.39013672 19.25375977 9.39013672 20.55078125 9.2421875 C21.72120972 9.10079346 21.72120972 9.10079346 22.9152832 8.95654297 C25 9 25 9 28 11 C27.01 11.495 27.01 11.495 26 12 C25.67 12.99 25.34 13.98 25 15 C27.64 15 30.28 15 33 15 C33.33 14.01 33.66 13.02 34 12 C34 12.66 34 13.32 34 14 C34.66 14 35.32 14 36 14 C36.90041311 22.02332397 37.11547323 29.92970447 37 38 C31.08565794 40.47899018 25.25073805 42.60701135 19.03125 44.19140625 C16.64380672 44.91907027 16.64380672 44.91907027 15 48 C12.3984375 48.51171875 12.3984375 48.51171875 9.375 48.6875 C7.87066406 48.78611328 7.87066406 48.78611328 6.3359375 48.88671875 C5.56507812 48.92410156 4.79421875 48.96148437 4 49 C3.91959473 48.3201001 3.83918945 47.6402002 3.75634766 46.93969727 C3.38392108 43.81338598 3.00450703 40.68795937 2.625 37.5625 C2.43550781 35.95858398 2.43550781 35.95858398 2.2421875 34.32226562 C1.56213522 28.76283823 0.69041123 23.37233108 -0.59863281 17.92358398 C-1.13682021 15.34427832 -1.23029557 12.87998258 -1.1875 10.25 C-1.18105469 9.36828125 -1.17460938 8.4865625 -1.16796875 7.578125 C-0.99837971 4.97513043 -0.57160203 2.54248581 0 0 Z " fill="#D32E35" transform="translate(104,52)"/>
<path d="M0 0 C1 2 1 2 0.50390625 3.8203125 C-2.87957426 12.10352204 -6.93024767 20.03830006 -11 28 C-20.68791291 28.13411454 -30.21471743 27.75646657 -39.875 27 C-41.14730469 26.90460937 -42.41960938 26.80921875 -43.73046875 26.7109375 C-46.82069542 26.47858963 -49.91048215 26.24155931 -53 26 C-52.46109459 22.27793316 -51.61589531 20.0551524 -49.234375 17.15234375 C-48.67363281 16.46462891 -48.11289062 15.77691406 -47.53515625 15.06835938 C-46.65150391 14.01358398 -46.65150391 14.01358398 -45.75 12.9375 C-45.17636719 12.23044922 -44.60273437 11.52339844 -44.01171875 10.79492188 C-38.67732001 4.32438127 -34.67165007 0.59813458 -26.23828125 -0.69140625 C-17.61131237 -1.51351788 -8.53127276 -1.70625455 0 0 Z " fill="#7ECFF3" transform="translate(103,32)"/>
<path d="M0 0 C1.258125 0.04125 2.51625 0.0825 3.8125 0.125 C3.8125 0.455 3.8125 0.785 3.8125 1.125 C1.8325 1.125 -0.1475 1.125 -2.1875 1.125 C-2.455625 1.723125 -2.72375 2.32125 -3 2.9375 C-4.1875 5.125 -4.1875 5.125 -5.75 6.625 C-7.45066011 8.39960185 -7.77544182 9.73506256 -8.1875 12.125 C-7.1975 12.62 -7.1975 12.62 -6.1875 13.125 C-5.506875 11.949375 -5.506875 11.949375 -4.8125 10.75 C-3.1875 8.125 -3.1875 8.125 -1.1875 6.125 C1.25 6.125 1.25 6.125 3.8125 7.125 C6.55221593 11.18733741 7.14238079 14.28674846 6.8125 19.125 C6.8125 19.785 6.8125 20.445 6.8125 21.125 C7.8025 20.63 7.8025 20.63 8.8125 20.125 C9.6875 22.1875 9.6875 22.1875 9.8125 25.125 C7.72740877 28.66220834 5.29250523 31.54078741 1.4375 33.0625 C0.57125 33.083125 -0.295 33.10375 -1.1875 33.125 C-2.46625 33.186875 -3.745 33.24875 -5.0625 33.3125 C-9.05556908 33.23701665 -12.46134244 32.65930017 -16.1875 31.125 C-18.50468077 28.2098371 -19.1875 26.85917994 -19.1875 23.125 C-23.97467542 23.07556535 -28.76170227 23.03926418 -33.54907227 23.01513672 C-35.17767932 23.00507858 -36.80626832 22.99143042 -38.43481445 22.97412109 C-40.77559872 22.94986426 -43.11614424 22.93851517 -45.45703125 22.9296875 C-46.18525589 22.91936493 -46.91348053 22.90904236 -47.66377258 22.89840698 C-51.40025069 22.89757751 -52.99425056 22.99616704 -56.1875 25.125 C-61.33243415 25.80992931 -65.77292172 25.94545541 -70.3125 23.3125 C-72.1875 21.125 -72.1875 21.125 -73.1875 18.125 C-75.18766466 16.91617904 -75.18766466 16.91617904 -77.1875 16.125 C-76.5275 15.795 -75.8675 15.465 -75.1875 15.125 C-73.85912109 15.56972656 -73.85912109 15.56972656 -72.50390625 16.0234375 C-57.6837684 20.94602746 -38.63618205 18.22747621 -23.1875 18.125 C-24.1775 17.465 -25.1675 16.805 -26.1875 16.125 C-23.2175 15.465 -20.2475 14.805 -17.1875 14.125 C-17.1875 13.465 -17.1875 12.805 -17.1875 12.125 C-21.1475 12.125 -25.1075 12.125 -29.1875 12.125 C-29.1875 11.795 -29.1875 11.465 -29.1875 11.125 C-24.2375 11.125 -19.2875 11.125 -14.1875 11.125 C-13.8575 9.475 -13.5275 7.825 -13.1875 6.125 C-11.25 3.8125 -11.25 3.8125 -9.1875 2.125 C-8.5275 2.125 -7.8675 2.125 -7.1875 2.125 C-4.09861478 0.06574319 -3.47814073 -0.1140374 0 0 Z " fill="#313434" transform="translate(93.1875,89.875)"/>
<path d="M0 0 C0.33 0.66 0.66 1.32 1 2 C2.09957031 2.06058594 3.19914062 2.12117188 4.33203125 2.18359375 C12.57067673 2.64715164 20.78862311 3.1664477 29 4 C27.00976962 5.99023038 25.84216785 6.56144613 23.3125 7.625 C18.42414718 9.98427814 15.07257837 13.56396497 12 18 C12 18.66 12 19.32 12 20 C12.66 20 13.32 20 14 20 C13.67 21.98 13.34 23.96 13 26 C9.14589793 26.05847045 5.29191135 26.09375405 1.4375 26.125 C-0.19155273 26.15013672 -0.19155273 26.15013672 -1.85351562 26.17578125 C-7.64479442 26.21098659 -12.54134642 25.98923674 -18 24 C-18 22.35 -18 20.7 -18 19 C-21.13498292 17.14223235 -23.37471432 16.79859524 -27 17 C-21.87101665 9.07338937 -12.89368525 5.65875034 -4.25 2.859375 C-1.84347195 2.11564894 -1.84347195 2.11564894 0 0 Z " fill="#CE2E34" transform="translate(47,57)"/>
<path d="M0 0 C1.02673828 -0.00580078 1.02673828 -0.00580078 2.07421875 -0.01171875 C7.12327939 -0.00172061 7.12327939 -0.00172061 8.25 1.125 C8.54702014 2.75404268 8.78812946 4.39337631 9.00390625 6.03515625 C9.20209961 7.51918945 9.20209961 7.51918945 9.40429688 9.03320312 C9.53900391 10.07412109 9.67371094 11.11503906 9.8125 12.1875 C9.95107422 13.23228516 10.08964844 14.27707031 10.23242188 15.35351562 C10.57539267 17.94353644 10.91440631 20.53401469 11.25 23.125 C7.89998952 24.51575453 5.05757143 25.4258145 1.4375 25.75 C0.64730469 25.82476562 -0.14289063 25.89953125 -0.95703125 25.9765625 C-1.84455078 26.05003906 -1.84455078 26.05003906 -2.75 26.125 C-2.75 23.815 -2.75 21.505 -2.75 19.125 C-3.74 19.125 -4.73 19.125 -5.75 19.125 C-5.09 21.435 -4.43 23.745 -3.75 26.125 C-10.375 26.375 -10.375 26.375 -13.75 24.125 C-14.4375 21.5 -14.4375 21.5 -14.75 19.125 C-14.75 20.775 -14.75 22.425 -14.75 24.125 C-15.74 23.795 -16.73 23.465 -17.75 23.125 C-18.0832882 15.71859564 -17.99523844 9.8651106 -14.75 3.125 C-10.8193042 -0.8056958 -5.2683504 -0.03045289 0 0 Z " fill="#80D1F5" transform="translate(124.75,34.875)"/>
<path d="M0 0 C0.66 0.33 1.32 0.66 2 1 C1.7834375 1.65484375 1.566875 2.3096875 1.34375 2.984375 C-0.84010049 10.14255162 -1.35145507 16.54134243 -1 24 C-0.34 24.33 0.32 24.66 1 25 C1 23.35 1 21.7 1 20 C1.66 20.33 2.32 20.66 3 21 C2.67 22.32 2.34 23.64 2 25 C5.303314 25.88935377 8.62294375 26.46274105 12 27 C11.34 24.69 10.68 22.38 10 20 C8.35 20 6.7 20 5 20 C5 19.67 5 19.34 5 19 C10.75 18.875 10.75 18.875 13 20 C13 22.31 13 24.62 13 27 C13.99 27.33 14.98 27.66 16 28 C12.68929162 29.00109515 9.69915231 29.10356134 6.25 29.0625 C5.26515625 29.05347656 4.2803125 29.04445313 3.265625 29.03515625 C2.51796875 29.02355469 1.7703125 29.01195313 1 29 C1 29.66 1 30.32 1 31 C0.01 31.33 -0.98 31.66 -2 32 C-3.81115956 30.18884044 -3.38199448 27.38721773 -3.5625 24.9375 C-3.68818359 23.28041016 -3.68818359 23.28041016 -3.81640625 21.58984375 C-3.87699219 20.73519531 -3.93757813 19.88054688 -4 19 C-6.48519351 27.56894723 -4.79493036 36.46195291 -3 45 C-1.43427647 52.44776598 -0.73473646 59.38104155 -1 67 C0.485 67.495 0.485 67.495 2 68 C0.68 68 -0.64 68 -2 68 C-1.67 69.65 -1.34 71.3 -1 73 C-1.66 73 -2.32 73 -3 73 C-3.66 74.65 -4.32 76.3 -5 78 C-6.32 78 -7.64 78 -9 78 C-9.99 78.495 -9.99 78.495 -11 79 C-10.90460938 78.33613281 -10.80921875 77.67226562 -10.7109375 76.98828125 C-9.63571157 70.18935712 -9.63571157 70.18935712 -12 64 C-14.39351495 62.83789781 -14.39351495 62.83789781 -17 63 C-19.17221707 64.62129245 -19.9091283 65.59836096 -20.51171875 68.26171875 C-20.56972656 69.06222656 -20.62773438 69.86273438 -20.6875 70.6875 C-20.75324219 71.49574219 -20.81898437 72.30398437 -20.88671875 73.13671875 C-20.92410156 73.75160156 -20.96148437 74.36648437 -21 75 C-21.33 75 -21.66 75 -22 75 C-22.495 72.03 -22.495 72.03 -23 69 C-23.66 69 -24.32 69 -25 69 C-23.63855967 63.80177328 -21.53269829 60.90456127 -18 57 C-21.54518884 58.39759905 -21.54518884 58.39759905 -25 60 C-24.875 58.25 -24.875 58.25 -24 56 C-20.81388377 53.26904323 -18.67032466 52.09576067 -14.5 51.5 C-10.10907572 52.1272749 -7.14282813 53.85717187 -4 57 C-5.32 48.42 -6.64 39.84 -8 31 C-10.041875 31.639375 -12.08375 32.27875 -14.1875 32.9375 C-18.10929598 34.16553713 -21.95295419 35.27595226 -26 36 C-23.37620067 32.72962155 -20.44671695 31.97251478 -16.5 30.8125 C-15.3553125 30.46832031 -14.210625 30.12414062 -13.03125 29.76953125 C-10 29 -10 29 -7 29 C-7.04125 27.96875 -7.0825 26.9375 -7.125 25.875 C-7.14794805 19.51839052 -5.98520512 13.2630897 -5 7 C-5.99 7.33 -6.98 7.66 -8 8 C-7.34 6.68 -6.68 5.36 -6 4 C-5.01 4 -4.02 4 -3 4 C-1.29467677 2.05990478 -1.29467677 2.05990478 0 0 Z " fill="#343737" transform="translate(109,34)"/>
<path d="M0 0 C0.66 0.66 1.32 1.32 2 2 C1.01 2.66 0.02 3.32 -1 4 C-1.33 4.99 -1.66 5.98 -2 7 C0.64 6.67 3.28 6.34 6 6 C7.23460515 10.38970718 7.27748059 14.6237658 6 19 C3.625 22.125 3.625 22.125 1 25 C0.5875 26.03125 0.175 27.0625 -0.25 28.125 C-2.79607361 32.30783521 -6.41322368 33.58740584 -11 35 C-11.99 35 -12.98 35 -14 35 C-14.33 24.44 -14.66 13.88 -15 3 C-10.545 2.505 -10.545 2.505 -6 2 C-3.97975201 1.3974699 -1.96766531 0.75679435 0 0 Z " fill="#D42E35" transform="translate(156,55)"/>
<path d="M0 0 C12.10857483 3.40969484 24.26203264 4.18771911 36.75 4.8125 C38.38154332 4.89912201 40.0130542 4.98635742 41.64453125 5.07421875 C45.59601644 5.28570597 49.54784529 5.48893455 53.5 5.6875 C53.5 6.3475 53.5 7.0075 53.5 7.6875 C51.19 8.3475 48.88 9.0075 46.5 9.6875 C47.82 10.3475 49.14 11.0075 50.5 11.6875 C47.25261705 12.76996098 44.87676187 12.81678115 41.4609375 12.8203125 C40.24833252 12.82256836 39.03572754 12.82482422 37.78637695 12.82714844 C36.49562256 12.82231445 35.20486816 12.81748047 33.875 12.8125 C32.56297607 12.80766602 31.25095215 12.80283203 29.89916992 12.79785156 C0.83461594 12.61856247 0.83461594 12.61856247 -8.5 7.6875 C-8.83 5.0475 -9.16 2.4075 -9.5 -0.3125 C-5.91750744 -1.57144196 -3.60797466 -1.02322937 0 0 Z " fill="#A8CECF" transform="translate(22.5,96.3125)"/>
<path d="M0 0 C13.24210988 -0.49503214 13.24210988 -0.49503214 16.89453125 1.890625 C21.93397934 6.93942271 21.0625 14.83503879 21.0625 21.5625 C21.04665998 23.37505052 21.02760015 25.18759041 21 27 C18.69 27.33 16.38 27.66 14 28 C13.4225 27.05125 12.845 26.1025 12.25 25.125 C9.75492231 21.58377027 9.75492231 21.58377027 6 20 C4.02 20 2.04 20 0 20 C0 13.4 0 6.8 0 0 Z " fill="#D12E35" transform="translate(163,53)"/>
<path d="M0 0 C4.84989109 3.19651913 6.49914027 7.60713975 7.82421875 13.0703125 C8.12647905 18.10798412 6.10012931 22.10770005 3 26 C0.52240954 27.57057276 -0.548823 28.02255885 -3.5 27.875 C-6.62830164 26.78009443 -7.95670509 25.60696247 -10 23 C-12.78369881 17.01504756 -12.68139301 10.88281658 -11.1875 4.5625 C-8.80076339 -0.58782636 -5.17060182 -0.62403815 0 0 Z " fill="#131312" transform="translate(170,76)"/>
<path d="M0 0 C0.33 0 0.66 0 1 0 C1 1.65 1 3.3 1 5 C7.45805083 6.10259404 13.89758192 6.32574332 20.4375 6.5625 C21.55060547 6.60568359 22.66371094 6.64886719 23.81054688 6.69335938 C26.54025844 6.79879888 29.27005143 6.90092029 32 7 C32.33 5.68 32.66 4.36 33 3 C33.12375 3.78375 33.2475 4.5675 33.375 5.375 C33.79117993 8.14057822 33.79117993 8.14057822 36 10 C35.01 10 34.02 10 33 10 C33 13.3 33 16.6 33 20 C12.42704068 20.44348894 12.42704068 20.44348894 3 18 C0.53918698 15.53918698 0.42257632 14.07732258 -0.1875 10.6875 C-0.36667969 9.74261719 -0.54585937 8.79773438 -0.73046875 7.82421875 C-1.00440821 4.9538096 -0.71355794 2.77832133 0 0 Z " fill="#6C6C6C" transform="translate(28,76)"/>
<path d="M0 0 C7.31197761 1.91504175 11.72603293 6.06586797 15.9296875 12.09375 C17.07635041 14.13598176 17.66941565 16.06577491 18.3125 18.3125 C18.89313959 20.33986427 18.89313959 20.33986427 20 22 C22.73643494 23.32460894 24.93367836 23.59785946 28 24 C28 24.33 28 24.66 28 25 C25.03 25.33 22.06 25.66 19 26 C19 31.94 19 37.88 19 44 C21.31 44.33 23.62 44.66 26 45 C26 45.33 26 45.66 26 46 C23.03 46 20.06 46 17 46 C17 42.04 17 38.08 17 34 C14.36 34 11.72 34 9 34 C9.50603992 31.83125748 9.99983813 30.00032373 11 28 C9.68 27.67 8.36 27.34 7 27 C9.31 26.34 11.62 25.68 14 25 C13.37720331 23.41579871 12.75166599 21.83267469 12.125 20.25 C11.77695313 19.36828125 11.42890625 18.4865625 11.0703125 17.578125 C9.33868526 12.7264428 9.33868526 12.7264428 5.4375 9.8125 C4.633125 9.544375 3.82875 9.27625 3 9 C2.67 8.67 2.34 8.34 2 8 C0.65252916 7.76924918 -0.70377565 7.58846937 -2.0625 7.4375 C-3.361875 7.293125 -4.66125 7.14875 -6 7 C-5.67 8.03125 -5.34 9.0625 -5 10.125 C-3.41384909 16.31322256 -3.83976747 22.66191329 -4 29 C-6.44867197 25.32699204 -6.92310676 21.82757573 -7.625 17.5625 C-7.7590625 16.79873047 -7.893125 16.03496094 -8.03125 15.24804688 C-8.63191257 11.72681579 -9 8.59981922 -9 5 C-7 3 -7 3 -3.5625 2.875 C-2.386875 2.91625 -1.21125 2.9575 0 3 C0.99 3 1.98 3 3 3 C2.01 2.67 1.02 2.34 0 2 C0 1.34 0 0.68 0 0 Z " fill="#7D2C30" transform="translate(145,28)"/>
<path d="M0 0 C2.62527189 -0.05382106 5.24944713 -0.09358313 7.875 -0.125 C8.62136719 -0.14175781 9.36773437 -0.15851563 10.13671875 -0.17578125 C12.09194461 -0.1933959 14.04742021 -0.10320189 16 0 C16.99 0.99 16.99 0.99 18 2 C17.67582137 5.80909895 17.14418558 7.78372163 15 11 C5.53491561 13.27927584 -5.49846335 12.04490118 -15.1484375 11.87573242 C-16.79585937 11.85796753 -16.79585937 11.85796753 -18.4765625 11.83984375 C-19.46736816 11.82300537 -20.45817383 11.80616699 -21.47900391 11.78881836 C-24.24800409 11.8162808 -24.24800409 11.8162808 -27 14 C-32.14493415 14.68492931 -36.58542172 14.82045541 -41.125 12.1875 C-43 10 -43 10 -44 7 C-46.00016466 5.79117904 -46.00016466 5.79117904 -48 5 C-47.34 4.67 -46.68 4.34 -46 4 C-45.11441406 4.29648438 -44.22882812 4.59296875 -43.31640625 4.8984375 C-28.4962684 9.82102746 -9.44868205 7.10247621 6 7 C5.01 6.34 4.02 5.68 3 5 C5.97 4.34 8.94 3.68 12 3 C12 2.34 12 1.68 12 1 C8.04 1 4.08 1 0 1 C0 0.67 0 0.34 0 0 Z " fill="#86A1A2" transform="translate(64,101)"/>
<path d="M0 0 C9.5 0 9.5 0 14 4 C17.44588234 8.37720189 19.57606402 12.34752023 20 18 C18.4861211 18.68231162 16.96341994 19.3450597 15.4375 20 C14.59058594 20.37125 13.74367187 20.7425 12.87109375 21.125 C10 22 10 22 3 22 C2.01 14.74 1.02 7.48 0 0 Z " fill="#7FD1F5" transform="translate(139,35)"/>
<path d="M0 0 C-3.27408894 6.03523728 -6.56493514 12.05469543 -10 18 C-9.01 18.33 -8.02 18.66 -7 19 C-5.8125 22.5625 -5.8125 22.5625 -5 26 C-11.625 26.25 -11.625 26.25 -15 24 C-15.6875 21.375 -15.6875 21.375 -16 19 C-16 20.65 -16 22.3 -16 24 C-16.99 23.67 -17.98 23.34 -19 23 C-19.3332882 15.59359564 -19.24523844 9.7401106 -16 3 C-11.82972023 -1.17027977 -5.53869904 -0.10860194 0 0 Z " fill="#B6E2F8" transform="translate(126,35)"/>
<path d="M0 0 C0.66 0.33 1.32 0.66 2 1 C1.7834375 1.65484375 1.566875 2.3096875 1.34375 2.984375 C-0.84010049 10.14255162 -1.35145507 16.54134243 -1 24 C-0.34 24.33 0.32 24.66 1 25 C1 23.35 1 21.7 1 20 C1.66 20.33 2.32 20.66 3 21 C2.67 22.32 2.34 23.64 2 25 C5.303314 25.88935377 8.62294375 26.46274105 12 27 C11.34 24.69 10.68 22.38 10 20 C8.35 20 6.7 20 5 20 C5 19.67 5 19.34 5 19 C10.75 18.875 10.75 18.875 13 20 C13 22.31 13 24.62 13 27 C13.99 27.33 14.98 27.66 16 28 C12.68929162 29.00109515 9.69915231 29.10356134 6.25 29.0625 C5.26515625 29.05347656 4.2803125 29.04445313 3.265625 29.03515625 C2.51796875 29.02355469 1.7703125 29.01195313 1 29 C1 29.66 1 30.32 1 31 C0.01 31.33 -0.98 31.66 -2 32 C-3.81115956 30.18884044 -3.38199448 27.38721773 -3.5625 24.9375 C-3.68818359 23.28041016 -3.68818359 23.28041016 -3.81640625 21.58984375 C-3.87699219 20.73519531 -3.93757813 19.88054688 -4 19 C-6.49879637 27.61959808 -4.78004117 36.59399042 -3 45.1875 C-1.6923931 51.57975399 -0.75422578 57.46394196 -1 64 C-1.33 63.01 -1.66 62.02 -2 61 C-2.66 60.67 -3.32 60.34 -4 60 C-4.43446053 57.37815138 -4.75247274 54.82826067 -5 52.1875 C-5.16172003 50.64037835 -5.32579986 49.09350163 -5.4921875 47.546875 C-5.57436523 46.77923828 -5.65654297 46.01160156 -5.74121094 45.22070312 C-6.29716162 40.45001691 -7.14429956 35.72455879 -8 31 C-9.32064453 31.41572266 -9.32064453 31.41572266 -10.66796875 31.83984375 C-12.41013672 32.38318359 -12.41013672 32.38318359 -14.1875 32.9375 C-15.33605469 33.29714844 -16.48460938 33.65679687 -17.66796875 34.02734375 C-20.44353006 34.83756036 -23.15687548 35.49134307 -26 36 C-23.37620067 32.72962155 -20.44671695 31.97251478 -16.5 30.8125 C-15.3553125 30.46832031 -14.210625 30.12414062 -13.03125 29.76953125 C-10 29 -10 29 -7 29 C-7.04125 27.96875 -7.0825 26.9375 -7.125 25.875 C-7.14794805 19.51839052 -5.98520512 13.2630897 -5 7 C-5.99 7.33 -6.98 7.66 -8 8 C-7.34 6.68 -6.68 5.36 -6 4 C-5.01 4 -4.02 4 -3 4 C-1.29467677 2.05990478 -1.29467677 2.05990478 0 0 Z " fill="#631B1F" transform="translate(109,34)"/>
<path d="M0 0 C-0.33 2.31 -0.66 4.62 -1 7 C-2.3597998 7.21148682 -2.3597998 7.21148682 -3.74707031 7.42724609 C-7.16902562 7.95977317 -10.59088899 8.49288399 -14.01269531 9.02636719 C-15.48271198 9.2554357 -16.95276305 9.4842836 -18.42285156 9.71289062 C-27.29058831 11.0920475 -36.15172216 12.49982436 -45 14 C-45.33 12.35 -45.66 10.7 -46 9 C-45.41847168 8.90501221 -44.83694336 8.81002441 -44.23779297 8.7121582 C-30.28997691 6.41299267 -16.51742955 3.68108486 -2.76806641 0.39550781 C-1 0 -1 0 0 0 Z " fill="#829D9F" transform="translate(153,93)"/>
<path d="M0 0 C0.33 0 0.66 0 1 0 C1 1.65 1 3.3 1 5 C7.45805083 6.10259404 13.89758192 6.32574332 20.4375 6.5625 C21.55060547 6.60568359 22.66371094 6.64886719 23.81054688 6.69335938 C26.54025844 6.79879888 29.27005143 6.90092029 32 7 C32.33 5.68 32.66 4.36 33 3 C33.12375 3.78375 33.2475 4.5675 33.375 5.375 C33.79117993 8.14057822 33.79117993 8.14057822 36 10 C35.01 10 34.02 10 33 10 C33 13.3 33 16.6 33 20 C12.42704068 20.44348894 12.42704068 20.44348894 3 18 C0.53918698 15.53918698 0.42257632 14.07732258 -0.1875 10.6875 C-0.36667969 9.74261719 -0.54585937 8.79773438 -0.73046875 7.82421875 C-1.00440821 4.9538096 -0.71355794 2.77832133 0 0 Z M1 6 C1.66 9.3 2.32 12.6 3 16 C3.66 16 4.32 16 5 16 C5 15.34 5 14.68 5 14 C6.155 14.165 7.31 14.33 8.5 14.5 C15.6385158 15.31353872 22.82734659 15.07920722 30 15 C30 15.66 30 16.32 30 17 C24.06 17 18.12 17 12 17 C12 17.33 12 17.66 12 18 C16.51815281 18.88277755 20.77512694 19.10589503 25.375 19.0625 C26.62023437 19.05347656 27.86546875 19.04445313 29.1484375 19.03515625 C30.08945312 19.02355469 31.03046875 19.01195312 32 19 C32 15.7 32 12.4 32 9 C30.91114502 8.91697632 30.91114502 8.91697632 29.80029297 8.83227539 C26.4916443 8.57843447 23.18332641 8.32050554 19.875 8.0625 C18.73289062 7.97548828 17.59078125 7.88847656 16.4140625 7.79882812 C15.30546875 7.71181641 14.196875 7.62480469 13.0546875 7.53515625 C12.03874512 7.456604 11.02280273 7.37805176 9.97607422 7.29711914 C6.95303233 6.99531094 3.99033726 6.53217866 1 6 Z " fill="#505050" transform="translate(28,76)"/>
<path d="M0 0 C2.4375 1.125 2.4375 1.125 4.25 3.8125 C5.51399434 7.33837895 5.97711888 9.42475625 5.4375 13.125 C3.4375 16.5 3.4375 16.5 1.4375 19.125 C-1.4375 18.8125 -1.4375 18.8125 -4.5625 18.125 C-7.52899269 13.67526097 -7.1942693 9.3429464 -6.5625 4.125 C-4.57743239 0.890075 -3.77215533 0.18400758 0 0 Z " fill="#91928D" transform="translate(94.5625,95.875)"/>
<path d="M0 0 C0.66 0 1.32 0 2 0 C6 4 6 4 6.625 6 C8.89860269 9.30705846 12.16712476 9.25815318 16 10 C16 10.33 16 10.66 16 11 C11.545 11.495 11.545 11.495 7 12 C7 17.94 7 23.88 7 30 C9.31 30.33 11.62 30.66 14 31 C14 31.33 14 31.66 14 32 C11.03 32 8.06 32 5 32 C5 28.04 5 24.08 5 20 C2.36 20 -0.28 20 -3 20 C-2.49396008 17.83125748 -2.00016187 16.00032373 -1 14 C-2.32 13.67 -3.64 13.34 -5 13 C-2.69 12.34 -0.38 11.68 2 11 C1.01 7.7 0.02 4.4 -1 1 C-0.67 0.67 -0.34 0.34 0 0 Z " fill="#892428" transform="translate(157,42)"/>
<path d="M0 0 C1 1 1 1 1.3125 4.3125 C1 8 1 8 -0.4375 10.375 C-4.0549152 12.66897061 -7.73167316 13.23581916 -12 13 C-15 11 -15 11 -15.5625 8.75 C-14.8437363 5.23604414 -13.5244319 3.58499627 -10.9296875 1.1640625 C-7.50085594 -0.90434196 -3.86041186 -0.64204745 0 0 Z " fill="#F5CC37" transform="translate(76,73)"/>
<path d="M0 0 C0.98484375 0.11085938 1.9696875 0.22171875 2.984375 0.3359375 C3.73203125 0.43132813 4.4796875 0.52671875 5.25 0.625 C5.25 0.955 5.25 1.285 5.25 1.625 C4.53714844 1.69976562 3.82429688 1.77453125 3.08984375 1.8515625 C2.13207031 1.98304687 1.17429688 2.11453125 0.1875 2.25 C-0.75222656 2.36601563 -1.69195312 2.48203125 -2.66015625 2.6015625 C-9.9227311 5.00711826 -14.35014033 11.27635038 -18.625 17.3125 C-19.35203125 18.30733398 -19.35203125 18.30733398 -20.09375 19.32226562 C-22.11663953 22.12775347 -23.64631217 24.31393652 -24.75 27.625 C-23.47769531 27.60759766 -23.47769531 27.60759766 -22.1796875 27.58984375 C-13.63576189 27.52412125 -5.26577586 27.90025312 3.25 28.625 C3.25 28.955 3.25 29.285 3.25 29.625 C-0.60410207 29.68347045 -4.45808865 29.71875405 -8.3125 29.75 C-9.94155273 29.77513672 -9.94155273 29.77513672 -11.60351562 29.80078125 C-20.68012107 29.85595818 -20.68012107 29.85595818 -24.83203125 28.50390625 C-25.79496094 28.21386719 -26.75789063 27.92382812 -27.75 27.625 C-30.91666667 29.375 -30.91666667 29.375 -33.75 31.625 C-36.625 32.375 -36.625 32.375 -38.75 32.625 C-36.6790858 30.38204062 -34.75881141 29.02511302 -32.0625 27.625 C-27.44225245 24.80572326 -24.92987098 21.09685779 -21.8984375 16.6875 C-19.56188224 13.35684668 -17.08656231 10.20005446 -14.5 7.0625 C-13.69046875 6.07121094 -12.8809375 5.07992187 -12.046875 4.05859375 C-8.07140721 -0.15350903 -5.70762762 -0.67947948 0 0 Z " fill="#74494E" transform="translate(74.75,30.375)"/>
<path d="M0 0 C1.06969984 3.20909953 1.06771842 5.44774092 1 8.8125 C0.85894268 14.9845408 0.85894268 14.9845408 2 21 C3.84982472 22.25827123 3.84982472 22.25827123 6 23 C7.75 24.625 7.75 24.625 9 26 C3.60086279 26.18944341 -0.91245442 26.09487171 -6 24 C-8.31718077 21.0848371 -9 19.73417994 -9 16 C-11.64 16 -14.28 16 -17 16 C-17 15.67 -17 15.34 -17 15 C-10.565 14.505 -10.565 14.505 -4 14 C-2.53667868 10.3416967 -1.76541303 8.40588145 -1.4375 4.75 C-1 1 -1 1 0 0 Z " fill="#444646" transform="translate(83,97)"/>
<path d="M0 0 C4.875 1.75 4.875 1.75 6 4 C6.14640501 5.64142541 6.22096589 7.2898141 6.25 8.9375 C6.28867188 10.25041016 6.28867188 10.25041016 6.328125 11.58984375 C6 14 6 14 4.609375 15.82421875 C3 17 3 17 1 16.875 C-1.3033112 15.86730135 -2.41404344 14.94820848 -4 13 C-4.62233621 9.95559856 -4.52440647 7.05811771 -4 4 C-2 1.4375 -2 1.4375 0 0 Z " fill="#8D8E89" transform="translate(166,81)"/>
<path d="M0 0 C4.875 0.875 4.875 0.875 6 2 C6.2697503 6.04625449 6.31844369 9.02343935 5.0625 12.875 C1.84671433 16.18823372 -1.49557198 16.28190278 -6 17 C-5.67 13.04 -5.34 9.08 -5 5 C-3.35 5 -1.7 5 0 5 C0 3.35 0 1.7 0 0 Z " fill="#8CAEB0" transform="translate(184,75)"/>
<path d="M0 0 C2.05137315 3.48216283 2.56818592 6.77275657 3.125 10.75 C3.29257813 11.92046875 3.46015625 13.0909375 3.6328125 14.296875 C3.75398437 15.18890625 3.87515625 16.0809375 4 17 C0.6813122 18.45008384 -2.20735331 19.30215104 -5.8125 19.625 C-6.60269531 19.69976562 -7.39289063 19.77453125 -8.20703125 19.8515625 C-8.79871094 19.90054688 -9.39039062 19.94953125 -10 20 C-7.24550223 13.03274094 -3.5994375 6.55787929 0 0 Z " fill="#7FD1F5" transform="translate(132,41)"/>
<path d="M0 0 C0.33 0 0.66 0 1 0 C1.28875 1.0725 1.5775 2.145 1.875 3.25 C2.76128511 6.75177975 2.76128511 6.75177975 4 8.6875 C5.53961448 12.24785847 5.73701399 15.91466286 6.125 19.75 C6.21136719 20.54277344 6.29773438 21.33554687 6.38671875 22.15234375 C6.59800054 24.10083141 6.79992467 26.05032976 7 28 C4.24921116 28.91692961 2.64051087 29.10886083 -0.1875 29.0625 C-2.0746875 29.0315625 -2.0746875 29.0315625 -4 29 C-3.67 27.68 -3.34 26.36 -3 25 C-4.32 24.01 -5.64 23.02 -7 22 C-4.03 21.34 -1.06 20.68 2 20 C1.855625 19.14277344 1.71125 18.28554688 1.5625 17.40234375 C0.61141112 11.54390042 -0.2761941 5.93817322 0 0 Z " fill="#B6383F" transform="translate(133,38)"/>
<path d="M0 0 C8.25 1.65 16.5 3.3 25 5 C23 9 23 9 21 10 C15.82457047 10.50837553 11.44529532 10.83827129 6.875 8.1875 C5 6 5 6 4 3 C1.99983534 1.79117904 1.99983534 1.79117904 0 1 C0 0.67 0 0.34 0 0 Z " fill="#383A3A" transform="translate(16,105)"/>
<path d="M0 0 C0.33 0 0.66 0 1 0 C1.22786458 2.01822917 1.45572917 4.03645833 1.68359375 6.0546875 C1.91292961 8.07404316 1.91292961 8.07404316 3 10 C1.76382792 15.39420544 1.76382792 15.39420544 -0.8125 17.4375 C-3.65817538 18.1692451 -5.22363442 17.97172795 -8 17 C-10.35843614 15.10014867 -11.72047341 13.6788503 -12.875 10.875 C-12.936875 9.946875 -12.936875 9.946875 -13 9 C-12.34 8.34 -11.68 7.68 -11 7 C-9.9171875 7.99 -9.9171875 7.99 -8.8125 9 C-5.89605547 11.48293649 -5.89605547 11.48293649 -1 11 C-0.67 7.37 -0.34 3.74 0 0 Z " fill="#1C1B1A" transform="translate(172,86)"/>
<path d="M0 0 C0 1.65 0 3.3 0 5 C-8.26649533 9.13324767 -17.76340381 11.29523367 -27 11 C-27 10.67 -27 10.34 -27 10 C-26.21625 9.896875 -25.4325 9.79375 -24.625 9.6875 C-21.66954819 9.22404978 -21.66954819 9.22404978 -20 6 C-18.04467773 5.10864258 -18.04467773 5.10864258 -15.68359375 4.39453125 C-14.41418945 4.00297852 -14.41418945 4.00297852 -13.11914062 3.60351562 C-12.23419922 3.34248047 -11.34925781 3.08144531 -10.4375 2.8125 C-9.10428711 2.40354492 -9.10428711 2.40354492 -7.74414062 1.98632812 C-1.21763393 0 -1.21763393 0 0 0 Z " fill="#982529" transform="translate(141,90)"/>
<path d="M0 0 C2.75 2.375 2.75 2.375 4 5 C4 5.66 4 6.32 4 7 C4.66 7 5.32 7 6 7 C5.67 10.3 5.34 13.6 5 17 C3.29951834 13.59903668 2.06280305 10.39020351 0.87890625 6.8046875 C0.0152524 4.64531662 0.0152524 4.64531662 -3 3 C-7.75371172 2.47805652 -7.75371172 2.47805652 -11.9375 4.375 C-13.18241645 5.95540186 -13.18241645 5.95540186 -13 8 C-14.375 9.5 -14.375 9.5 -16 11 C-16.66 11.66 -17.32 12.32 -18 13 C-17.72354366 8.39239437 -17.06853804 4.62057691 -13.859375 1.109375 C-9.67016145 -1.39007174 -4.63541189 -0.89823399 0 0 Z " fill="#413536" transform="translate(173,74)"/>
<path d="M0 0 C5.95703125 -0.29296875 5.95703125 -0.29296875 8 0 C8.99 0.99 9.98 1.98 11 3 C8.69 6.96 6.38 10.92 4 15 C1.27893306 12.27893306 1.39344428 10.15223689 0.875 6.375 C0.70742187 5.18648437 0.53984375 3.99796875 0.3671875 2.7734375 C0.24601563 1.85820313 0.12484375 0.94296875 0 0 Z " fill="#B3E1F8" transform="translate(139,35)"/>
<path d="M0 0 C0.33 0 0.66 0 1 0 C1.12375 0.78375 1.2475 1.5675 1.375 2.375 C1.79117993 5.14057822 1.79117993 5.14057822 4 7 C3.01 7 2.02 7 1 7 C1 10.3 1 13.6 1 17 C-1.7084017 17.02714434 -4.41652721 17.04690846 -7.125 17.0625 C-7.88554688 17.07087891 -8.64609375 17.07925781 -9.4296875 17.08789062 C-13.7389644 17.10646509 -17.75516474 16.86117265 -22 16 C-22 15.67 -22 15.34 -22 15 C-14.74 15.33 -7.48 15.66 0 16 C0 12.7 0 9.4 0 6 C-0.88300781 6.01160156 -1.76601563 6.02320312 -2.67578125 6.03515625 C-23.21561338 6.18959108 -23.21561338 6.18959108 -28 3 C-14.14 3.495 -14.14 3.495 0 4 C0 2.68 0 1.36 0 0 Z " fill="#592426" transform="translate(60,79)"/>
<path d="M0 0 C5.75 -0.125 5.75 -0.125 8 1 C8 3.31 8 5.62 8 8 C8.99 8.33 9.98 8.66 11 9 C7.68929162 10.00109515 4.69915231 10.10356134 1.25 10.0625 C0.26515625 10.05347656 -0.7196875 10.04445313 -1.734375 10.03515625 C-2.48203125 10.02355469 -3.2296875 10.01195312 -4 10 C-4 10.66 -4 11.32 -4 12 C-4.99 12.33 -5.98 12.66 -7 13 C-8 12 -8 12 -8.0625 8.9375 C-8.041875 7.968125 -8.02125 6.99875 -8 6 C-7.34 5.67 -6.68 5.34 -6 5 C-5.34 5.33 -4.68 5.66 -4 6 C-4 4.35 -4 2.7 -4 1 C-3.34 1.33 -2.68 1.66 -2 2 C-2.33 3.32 -2.66 4.64 -3 6 C0.303314 6.88935377 3.62294375 7.46274105 7 8 C6.34 5.69 5.68 3.38 5 1 C3.35 1 1.7 1 0 1 C0 0.67 0 0.34 0 0 Z " fill="#344044" transform="translate(114,53)"/>
<path d="M0 0 C4.97644934 0.26560136 9.95284553 0.53217296 14.92919922 0.79956055 C16.61440704 0.88998243 18.29962796 0.98016044 19.98486328 1.07006836 C30.99380307 1.65760569 41.99816457 2.29091224 53 3 C53 3.33 53 3.66 53 4 C47.8629054 4.07524476 42.72614502 4.12910777 37.58862305 4.16479492 C35.84800617 4.17970213 34.10742562 4.20003508 32.36694336 4.22631836 C21.15180859 4.39119927 10.9101983 3.74690488 0 1 C0 0.67 0 0.34 0 0 Z " fill="#89494C" transform="translate(26,97)"/>
<path d="M0 0 C0.66 0 1.32 0 2 0 C5.2775403 6.55508059 4.10873014 15.86005418 4 23 C1.69 23.33 -0.62 23.66 -3 24 C-3.33 22.68 -3.66 21.36 -4 20 C-3.175 19.67 -2.35 19.34 -1.5 19 C1.12932799 17.3191745 1.12932799 17.3191745 1.4375 15.125 C1.61815173 10.81940003 1.61815173 10.81940003 -0.5625 7.3125 C-1.036875 6.879375 -1.51125 6.44625 -2 6 C-1.57894737 1.57894737 -1.57894737 1.57894737 0 0 Z " fill="#893030" transform="translate(180,57)"/>
<path d="M0 0 C0.99 0 1.98 0 3 0 C3.72396042 5.27456879 1.21521324 8.76295377 -1.375 13.125 C-1.7875 13.84042969 -2.2 14.55585937 -2.625 15.29296875 C-4.34307301 18.25803024 -6.09811157 21.14716735 -8 24 C-9.75316105 17.36617955 -7.92672942 13.84461448 -4.5625 8.0625 C-4.12873047 7.28326172 -3.69496094 6.50402344 -3.24804688 5.70117188 C-2.18154171 3.79083844 -1.09899146 1.89176929 0 0 Z " fill="#B2E0F7" transform="translate(130,36)"/>
<path d="M0 0 C-0.33 0.66 -0.66 1.32 -1 2 C-1.66 2 -2.32 2 -3 2 C-3.226875 2.639375 -3.45375 3.27875 -3.6875 3.9375 C-4.82907812 6.60118228 -6.10435723 8.94264301 -7.5625 11.4375 C-9.56755061 14.96403019 -10.68432019 17.89616253 -11 22 C-11.33 22 -11.66 22 -12 22 C-12.3332882 14.59359564 -12.24523844 8.7401106 -9 2 C-6.32750728 -0.67249272 -3.5165484 -1.7582742 0 0 Z " fill="#79BCDA" transform="translate(119,36)"/>
<path d="M0 0 C2.97 0 5.94 0 9 0 C9 0.33 9 0.66 9 1 C12.96 1.33 16.92 1.66 21 2 C21 2.99 21 3.98 21 5 C2.84289507 5.20050791 2.84289507 5.20050791 -4 4 C-4.33 3.34 -4.66 2.68 -5 2 C-3.35 2 -1.7 2 0 2 C0 1.34 0 0.68 0 0 Z " fill="#555555" transform="translate(37,84)"/>
<path d="M0 0 C1.95803507 -0.05389087 3.91648909 -0.09274217 5.875 -0.125 C7.51082031 -0.15980469 7.51082031 -0.15980469 9.1796875 -0.1953125 C12 0 12 0 14 2 C10.37 2 6.74 2 3 2 C3.33 3.03125 3.66 4.0625 4 5.125 C5.58615091 11.31322256 5.16023253 17.66191329 5 24 C2.55132803 20.32699204 2.07689324 16.82757573 1.375 12.5625 C1.2409375 11.79873047 1.106875 11.03496094 0.96875 10.24804688 C0.36808743 6.72681579 0 3.59981922 0 0 Z " fill="#A13237" transform="translate(136,33)"/>
<path d="M0 0 C1.8871875 0.061875 1.8871875 0.061875 3.8125 0.125 C3.8125 0.455 3.8125 0.785 3.8125 1.125 C1.8325 1.125 -0.1475 1.125 -2.1875 1.125 C-2.455625 1.723125 -2.72375 2.32125 -3 2.9375 C-4.1875 5.125 -4.1875 5.125 -5.6875 6.375 C-7.81748632 8.85998404 -7.92633009 11.10278452 -8.375 14.3125 C-8.53355469 15.39917969 -8.69210938 16.48585938 -8.85546875 17.60546875 C-8.96503906 18.43691406 -9.07460937 19.26835938 -9.1875 20.125 C-9.5175 20.125 -9.8475 20.125 -10.1875 20.125 C-10.1875 16.165 -10.1875 12.205 -10.1875 8.125 C-10.5175 9.775 -10.8475 11.425 -11.1875 13.125 C-12.1775 12.465 -13.1675 11.805 -14.1875 11.125 C-13.71104792 6.83693127 -12.52847516 4.85852513 -9.1875 2.125 C-8.5275 2.125 -7.8675 2.125 -7.1875 2.125 C-4.09861478 0.06574319 -3.47814073 -0.1140374 0 0 Z " fill="#232222" transform="translate(93.1875,89.875)"/>
<path d="M0 0 C0.99 0.66 1.98 1.32 3 2 C3 2.99 3 3.98 3 5 C3.66 5 4.32 5 5 5 C5.33 6.65 5.66 8.3 6 10 C5.01 9.34 4.02 8.68 3 8 C3 7.34 3 6.68 3 6 C-2.12636844 4.29121052 -7.19885601 4.099428 -12 6.5 C-12.66 6.995 -13.32 7.49 -14 8 C-13.875 6.25 -13.875 6.25 -13 4 C-8.68596143 0.30225266 -5.63853169 -0.63832434 0 0 Z " fill="#433939" transform="translate(98,86)"/>
<path d="M0 0 C0.98484375 0.11085938 1.9696875 0.22171875 2.984375 0.3359375 C3.73203125 0.43132813 4.4796875 0.52671875 5.25 0.625 C5.25 0.955 5.25 1.285 5.25 1.625 C4.53714844 1.69976562 3.82429688 1.77453125 3.08984375 1.8515625 C-6.74460011 3.20164766 -10.68914394 6.89729322 -16.6875 14.5 C-17.71573518 15.86947366 -18.73927655 17.24255152 -19.75 18.625 C-20.38549805 16.82275391 -20.38549805 16.82275391 -20.75 14.625 C-19.09930197 12.21587314 -17.49117897 10.16282398 -15.5625 8 C-15.06685547 7.41476563 -14.57121094 6.82953125 -14.06054688 6.2265625 C-9.62287303 1.11473741 -6.98659557 -0.83173757 0 0 Z " fill="#713236" transform="translate(74.75,30.375)"/>
<path d="M0 0 C0.66 0.33 1.32 0.66 2 1 C1.79503906 1.64324219 1.59007813 2.28648438 1.37890625 2.94921875 C-0.81262657 10.29976664 -1.64732402 17.35057967 -2 25 C-2.33 25 -2.66 25 -3 25 C-4.40454548 18.88019467 -5.23268915 13.28260706 -5 7 C-5.99 7.33 -6.98 7.66 -8 8 C-7.34 6.68 -6.68 5.36 -6 4 C-5.01 4 -4.02 4 -3 4 C-1.29467677 2.05990478 -1.29467677 2.05990478 0 0 Z " fill="#8D1E22" transform="translate(109,34)"/>
<path d="M0 0 C0.66 0 1.32 0 2 0 C6 4 6 4 6.625 6 C8.89860269 9.30705846 12.16712476 9.25815318 16 10 C16 10.33 16 10.66 16 11 C12.7 11 9.4 11 6 11 C5.67 11.99 5.34 12.98 5 14 C2.12744934 11.57804552 1.29161081 9.40257297 0.3125 5.8125 C0.06113281 4.91144531 -0.19023437 4.01039062 -0.44921875 3.08203125 C-0.63097656 2.39496094 -0.81273437 1.70789062 -1 1 C-0.67 0.67 -0.34 0.34 0 0 Z " fill="#91262B" transform="translate(157,42)"/>
<path d="M0 0 C2.5654594 2.5654594 2.54046087 4.47686668 3 8 C-2.84560277 10.63463787 -7.54487966 12.56131481 -14 12 C-14 10.35 -14 8.7 -14 7 C-13.67 8.32 -13.34 9.64 -13 11 C-6.97098731 9.97065637 -4.73026846 6.57790087 -1.3203125 1.8984375 C-0.88460937 1.27195313 -0.44890625 0.64546875 0 0 Z " fill="#78C0DE" transform="translate(156,45)"/>
<path d="M0 0 C0.99 0.66 1.98 1.32 3 2 C2.38416899 5.62840973 0.86239708 7.86120883 -1.375 10.75 C-1.98085937 11.54921875 -2.58671875 12.3484375 -3.2109375 13.171875 C-4.09652344 14.07679687 -4.09652344 14.07679687 -5 15 C-5.99 15 -6.98 15 -8 15 C-6.25565047 10.08410586 -3.74513488 3.74513488 0 0 Z " fill="#B2E0F6" transform="translate(153,41)"/>
<path d="M0 0 C2 0.6875 2 0.6875 4 2.6875 C4.125 5.3125 4.125 5.3125 4 7.6875 C-1.43440487 9.01591008 -1.43440487 9.01591008 -3.9375 7.5625 C-5 5.6875 -5 5.6875 -4.8125 3.0625 C-3.79862812 0.0988745 -3.11955018 -0.48742972 0 0 Z " fill="#F7CE2F" transform="translate(24,73.3125)"/>
<path d="M0 0 C1.33332095 2.6666419 0.67102033 4.16680303 0 7 C-4.26616316 8.13764351 -7.56486311 9 -12 9 C-12 7.68 -12 6.36 -12 5 C-8.04 3.35 -4.08 1.7 0 0 Z " fill="#A52226" transform="translate(154,85)"/>
<path d="M0 0 C4.62 0.66 9.24 1.32 14 2 C15.71979002 6.29947505 16.66254288 9.44432887 17 14 C16.01 15.485 16.01 15.485 15 17 C14.79503906 16.14535156 14.59007812 15.29070313 14.37890625 14.41015625 C14.10949219 13.30542969 13.84007812 12.20070313 13.5625 11.0625 C13.29566406 9.96035156 13.02882812 8.85820313 12.75390625 7.72265625 C12.27004275 5.10578746 12.27004275 5.10578746 11 4 C8.30764224 3.76321284 5.63501844 3.57801975 2.9375 3.4375 C2.17888672 3.39431641 1.42027344 3.35113281 0.63867188 3.30664062 C-1.24065438 3.20026367 -3.12030244 3.09960066 -5 3 C-5 2.67 -5 2.34 -5 2 C-3.35 2 -1.7 2 0 2 C0 1.34 0 0.68 0 0 Z " fill="#B4292F" transform="translate(120,31)"/>
<path d="M0 0 C2.31 0.33 4.62 0.66 7 1 C7.66 3.31 8.32 5.62 9 8 C2.375 8.25 2.375 8.25 -1 6 C-0.67 4.02 -0.34 2.04 0 0 Z " fill="#A6A7A6" transform="translate(112,53)"/>
<path d="M0 0 C4.875 0.875 4.875 0.875 6 2 C6.2697503 6.04625449 6.31844369 9.02343935 5.0625 12.875 C1.84671433 16.18823372 -1.49557198 16.28190278 -6 17 C-5.67 13.04 -5.34 9.08 -5 5 C-4.67 5 -4.34 5 -4 5 C-3.67 7.97 -3.34 10.94 -3 14 C-0.52733235 13.65555119 -0.52733235 13.65555119 2 13 C3.17051429 10.65897141 3.1992246 9.10647047 3.25 6.5 C3.27578125 5.7059375 3.3015625 4.911875 3.328125 4.09375 C3.21984375 3.4028125 3.1115625 2.711875 3 2 C2.01 1.34 1.02 0.68 0 0 Z " fill="#7D8585" transform="translate(184,75)"/>
<path d="M0 0 C-0.33 0.33 -0.66 0.66 -1 1 C1.97 1.495 1.97 1.495 5 2 C5 2.33 5 2.66 5 3 C-2.59 3 -10.18 3 -18 3 C-18 2.34 -18 1.68 -18 1 C-15.75152519 0.63627613 -13.50113812 0.28435904 -11.25 -0.0625 C-9.99703125 -0.25972656 -8.7440625 -0.45695312 -7.453125 -0.66015625 C-4.49983411 -0.95080818 -2.7397586 -0.98935727 0 0 Z " fill="#AF2227" transform="translate(89,28)"/>
<path d="M0 0 C0.99 0.33 1.98 0.66 3 1 C3.33 2.65 3.66 4.3 4 6 C4.66 6 5.32 6 6 6 C6.33 7.98 6.66 9.96 7 12 C7.99 12.33 8.98 12.66 10 13 C7.33333333 13 4.66666667 13 2 13 C1.73445313 12.45730469 1.46890625 11.91460937 1.1953125 11.35546875 C0.84210938 10.64003906 0.48890625 9.92460938 0.125 9.1875 C-0.22304687 8.47980469 -0.57109375 7.77210937 -0.9296875 7.04296875 C-2.0656486 4.78753582 -2.0656486 4.78753582 -4 2 C-2.125 2.3125 -2.125 2.3125 0 3 C0.99 4.485 0.99 4.485 2 6 C2 4.68 2 3.36 2 2 C1.34 2 0.68 2 0 2 C0 1.34 0 0.68 0 0 Z " fill="#372223" transform="translate(101,89)"/>
<path d="M0 0 C0.66 0 1.32 0 2 0 C2.50831867 2.83206118 3.00681505 5.66529734 3.5 8.5 C3.64308594 9.29148437 3.78617187 10.08296875 3.93359375 10.8984375 C4.81386457 16.0123918 5.1428131 20.81112402 5 26 C4.67 25.01 4.34 24.02 4 23 C3.34 22.67 2.68 22.34 2 22 C1.51866476 19.23083677 1.15634257 16.54036481 0.875 13.75 C0.78863281 12.98558594 0.70226562 12.22117187 0.61328125 11.43359375 C0.19677245 7.60567954 -0.10798195 3.8564982 0 0 Z " fill="#8D252A" transform="translate(103,72)"/>
<path d="M0 0 C2.62527189 -0.05382106 5.24944713 -0.09358313 7.875 -0.125 C8.62136719 -0.14175781 9.36773437 -0.15851563 10.13671875 -0.17578125 C12.09194461 -0.1933959 14.04742021 -0.10320189 16 0 C18 2 18 2 18 5 C15.36 5.66 12.72 6.32 10 7 C10 5.68 10 4.36 10 3 C10.66 3 11.32 3 12 3 C12 2.34 12 1.68 12 1 C8.04 1 4.08 1 0 1 C0 0.67 0 0.34 0 0 Z " fill="#90AFB0" transform="translate(64,101)"/>
<path d="M0 0 C0 0.33 0 0.66 0 1 C3.63 1.33 7.26 1.66 11 2 C11 2.33 11 2.66 11 3 C10.07058594 3.04898438 9.14117187 3.09796875 8.18359375 3.1484375 C-1.07660933 3.69677146 -1.07660933 3.69677146 -10 6 C-9.625 3.5625 -9.625 3.5625 -9 1 C-6.04335481 -0.4783226 -3.25770263 -0.06032783 0 0 Z " fill="#6B3B41" transform="translate(120,32)"/>
<path d="M0 0 C0.33 0 0.66 0 1 0 C1.28875 1.0725 1.5775 2.145 1.875 3.25 C2.78051399 6.78486938 2.78051399 6.78486938 4.09375 8.90625 C5.25682914 11.59336386 5.00432999 13.36709204 4.625 16.25 C4.51414063 17.14203125 4.40328125 18.0340625 4.2890625 18.953125 C4.19367188 19.62859375 4.09828125 20.3040625 4 21 C3.34 20.67 2.68 20.34 2 20 C0.46352228 13.45574304 -0.31241498 6.71692207 0 0 Z " fill="#805A63" transform="translate(133,38)"/>
<path d="M0 0 C0.66 0.33 1.32 0.66 2 1 C1.67 2.65 1.34 4.3 1 6 C1.66 6.33 2.32 6.66 3 7 C1.35 8.65 -0.3 10.3 -2 12 C-2.66 11.67 -3.32 11.34 -4 11 C-4 9.02 -4 7.04 -4 5 C-3.34 4.67 -2.68 4.34 -2 4 C-1.34 4.33 -0.68 4.66 0 5 C0 3.35 0 1.7 0 0 Z " fill="#373738" transform="translate(110,54)"/>
<path d="M0 0 C0.99 0 1.98 0 3 0 C4.38671875 1.53125 4.38671875 1.53125 5.6875 3.5 C6.12449219 4.1496875 6.56148437 4.799375 7.01171875 5.46875 C7.33785156 5.9740625 7.66398438 6.479375 8 7 C7.34 8.32 6.68 9.64 6 11 C5.67 9.68 5.34 8.36 5 7 C3.68 7.33 2.36 7.66 1 8 C0.67 6.68 0.34 5.36 0 4 C0.66 4 1.32 4 2 4 C2 3.34 2 2.68 2 2 C1.34 2 0.68 2 0 2 C0 1.34 0 0.68 0 0 Z " fill="#903538" transform="translate(154,35)"/>
<path d="M0 0 C0.33 0 0.66 0 1 0 C1.3431111 3.08799987 1.25565158 4.59984971 -0.4375 7.25 C-4.10092211 9.75184925 -7.6461365 9.81393746 -12 10 C-12.33 9.34 -12.66 8.68 -13 8 C-11.4221875 7.9071875 -11.4221875 7.9071875 -9.8125 7.8125 C-5.33662744 6.85862552 -3.87717133 5.46953013 -1 2 C-0.67 1.34 -0.34 0.68 0 0 Z " fill="#F3CB12" transform="translate(76,76)"/>
<path d="M0 0 C0.33 0 0.66 0 1 0 C1 1.65 1 3.3 1 5 C1.99 5.33 2.98 5.66 4 6 C3.01 6 2.02 6 1 6 C1.39695637 7.62992692 1.81832493 9.25392235 2.25 10.875 C2.48203125 11.77992187 2.7140625 12.68484375 2.953125 13.6171875 C3.79914179 16.14957604 3.79914179 16.14957604 6.109375 17.3203125 C6.73328125 17.54460937 7.3571875 17.76890625 8 18 C5.625 18.125 5.625 18.125 3 18 C0.53918698 15.53918698 0.42257632 14.07732258 -0.1875 10.6875 C-0.36667969 9.74261719 -0.54585937 8.79773438 -0.73046875 7.82421875 C-1.00440821 4.9538096 -0.71355794 2.77832133 0 0 Z " fill="#4D2226" transform="translate(28,76)"/>
<path d="M0 0 C2.31 0 4.62 0 7 0 C7 1.32 7 2.64 7 4 C4.36 4 1.72 4 -1 4 C-0.67 2.68 -0.34 1.36 0 0 Z " fill="#261C1D" transform="translate(130,63)"/>
<path d="M0 0 C0.66 0.33 1.32 0.66 2 1 C1.2575 2.175625 1.2575 2.175625 0.5 3.375 C-1.16537965 5.78552327 -1.16537965 5.78552327 -1 8 C-2.375 9.5 -2.375 9.5 -4 11 C-4.66 11.66 -5.32 12.32 -6 13 C-5.63118644 6.85310727 -4.09949571 4.30972626 0 0 Z " fill="#2E2323" transform="translate(161,74)"/>
<path d="M0 0 C2.64 0 5.28 0 8 0 C7.01 0.33 6.02 0.66 5 1 C4.29618843 2.98723268 3.6288189 4.98777953 3 7 C2.01 7.495 2.01 7.495 1 8 C0.67 5.36 0.34 2.72 0 0 Z " fill="#7BC6E5" transform="translate(139,35)"/>
<path d="M0 0 C0.66 0.33 1.32 0.66 2 1 C-1.3 4.3 -4.6 7.6 -8 11 C-8.66 10.67 -9.32 10.34 -10 10 C-8.7121669 8.51749445 -7.41960936 7.03909182 -6.125 5.5625 C-5.40570313 4.73878906 -4.68640625 3.91507813 -3.9453125 3.06640625 C-2 1 -2 1 0 0 Z " fill="#76BDD9" transform="translate(69,33)"/>
<path d="M0 0 C3.3 0.33 6.6 0.66 10 1 C10 1.66 10 2.32 10 3 C4.375 4.125 4.375 4.125 1 3 C0.67 2.01 0.34 1.02 0 0 Z " fill="#111111" transform="translate(28,109)"/>
<path d="M0 0 C0.99 0.33 1.98 0.66 3 1 C3 2.65 3 4.3 3 6 C1.68 6.33 0.36 6.66 -1 7 C-1.625 4.625 -1.625 4.625 -2 2 C-1.34 1.34 -0.68 0.68 0 0 Z " fill="#4F4F4F" transform="translate(93,102)"/>
<path d="M0 0 C0.33 0 0.66 0 1 0 C1 5.28 1 10.56 1 16 C0.67 16 0.34 16 0 16 C-2.66514806 5.62642369 -2.66514806 5.62642369 0 0 Z " fill="#B81F26" transform="translate(106,43)"/>
<path d="M0 0 C4.455 0.99 4.455 0.99 9 2 C9 2.33 9 2.66 9 3 C3.61972975 4.19088986 -1.45291384 5.2919519 -7 5 C-7 4.67 -7 4.34 -7 4 C-5.824375 3.8453125 -5.824375 3.8453125 -4.625 3.6875 C-1.66954819 3.22404978 -1.66954819 3.22404978 0 0 Z " fill="#6F474A" transform="translate(121,96)"/>
<path d="M0 0 C1.2065625 0.0309375 1.2065625 0.0309375 2.4375 0.0625 C2.4375 1.0525 2.4375 2.0425 2.4375 3.0625 C-0.20988916 4.5231285 -1.45698334 5.0625 -4.5625 5.0625 C-3.43829114 0.08386076 -3.43829114 0.08386076 0 0 Z " fill="#371F20" transform="translate(158.5625,56.9375)"/>
<path d="M0 0 C0 0.33 0 0.66 0 1 C-2.29047223 1.36181089 -4.58242945 1.71423224 -6.875 2.0625 C-8.78925781 2.35833984 -8.78925781 2.35833984 -10.7421875 2.66015625 C-14 3 -14 3 -16 2 C-11.08785163 -2.23461067 -5.95928917 -0.86623643 0 0 Z " fill="#613337" transform="translate(80,31)"/>
<path d="M0 0 C1.73662334 3.22515763 2.8905928 6.51329166 4 10 C3.34 10 2.68 10 2 10 C1.67 10.66 1.34 11.32 1 12 C0.34 11.67 -0.32 11.34 -1 11 C-0.835 10.29875 -0.67 9.5975 -0.5 8.875 C0.02415338 5.86111806 0.07099683 3.05286375 0 0 Z " fill="#434545" transform="translate(104,97)"/>
<path d="M0 0 C0.66 0.33 1.32 0.66 2 1 C1.835 1.598125 1.67 2.19625 1.5 2.8125 C0.8885876 5.11344336 0.8885876 5.11344336 1 8 C0.34 7.34 -0.32 6.68 -1 6 C-3.58354218 5.83312552 -3.58354218 5.83312552 -6 6 C-2.25 1.125 -2.25 1.125 0 0 Z " fill="#77312C" transform="translate(26,68)"/>
<path d="M0 0 C0 0.33 0 0.66 0 1 C-1.65 1.33 -3.3 1.66 -5 2 C-5 2.66 -5 3.32 -5 4 C-6.98 4.99 -6.98 4.99 -9 6 C-9.33 4.35 -9.66 2.7 -10 1 C-6.61981469 -0.04005702 -3.5219721 -0.08004482 0 0 Z " fill="#829EA0" transform="translate(117,101)"/>
<path d="M0 0 C5.75 -0.125 5.75 -0.125 8 1 C8 3.31 8 5.62 8 8 C8.99 8.33 9.98 8.66 11 9 C9.68 9 8.36 9 7 9 C6.34 6.36 5.68 3.72 5 1 C3.35 1 1.7 1 0 1 C0 0.67 0 0.34 0 0 Z " fill="#49565B" transform="translate(114,53)"/>
<path d="M0 0 C0.66 0.66 1.32 1.32 2 2 C0.42274653 2.70133599 -1.16211333 3.385583 -2.75 4.0625 C-3.63171875 4.44535156 -4.5134375 4.82820313 -5.421875 5.22265625 C-8.15256309 6.04600008 -9.36901347 5.9773992 -12 5 C-10.75264433 4.3490741 -9.50198168 3.70448331 -8.25 3.0625 C-7.55390625 2.70285156 -6.8578125 2.34320313 -6.140625 1.97265625 C-4.05566763 1.02529423 -2.27265127 0.30079208 0 0 Z " fill="#812328" transform="translate(95,64)"/>
<path d="M0 0 C-0.33 0.99 -0.66 1.98 -1 3 C-4.63 3.33 -8.26 3.66 -12 4 C-11.67 3.01 -11.34 2.02 -11 1 C-11 1.66 -11 2.32 -11 3 C-10.37351562 2.7834375 -9.74703125 2.566875 -9.1015625 2.34375 C-7.87566406 1.92609375 -7.87566406 1.92609375 -6.625 1.5 C-5.81289062 1.2215625 -5.00078125 0.943125 -4.1640625 0.65625 C-2 0 -2 0 0 0 Z " fill="#941C1F" transform="translate(120,97)"/>
<path d="M0 0 C0.66 0 1.32 0 2 0 C3.0625 1.8125 3.0625 1.8125 4 4 C3 7 3 7 1 8 C0.34 5.69 -0.32 3.38 -1 1 C-0.67 0.67 -0.34 0.34 0 0 Z " fill="#7E2125" transform="translate(157,42)"/>
<path d="M0 0 C0.66 0 1.32 0 2 0 C2.33 0.99 2.66 1.98 3 3 C3.66 3 4.32 3 5 3 C4.1875 4.9375 4.1875 4.9375 3 7 C2.01 7.33 1.02 7.66 0 8 C0 5.36 0 2.72 0 0 Z " fill="#A72C31" transform="translate(103,32)"/>
<path d="M0 0 C0.66 0.33 1.32 0.66 2 1 C-0.31 3.31 -2.62 5.62 -5 8 C-5.33 7.01 -5.66 6.02 -6 5 C-4.21653709 1.96811304 -3.40424844 1.13474948 0 0 Z " fill="#80292C" transform="translate(66,33)"/>
<path d="M0 0 C1.98 0.495 1.98 0.495 4 1 C3.67 2.32 3.34 3.64 3 5 C1.68 4.67 0.36 4.34 -1 4 C-0.67 2.68 -0.34 1.36 0 0 Z " fill="#494949" transform="translate(166,87)"/>
<path d="M0 0 C0.66 0 1.32 0 2 0 C2.66 2.97 3.32 5.94 4 9 C3.01 8.67 2.02 8.34 1 8 C0.67 5.36 0.34 2.72 0 0 Z " fill="#8E9D9D" transform="translate(13,96)"/>
<path d="M0 0 C0.33 0 0.66 0 1 0 C1.33 3.63 1.66 7.26 2 11 C1.01 11.33 0.02 11.66 -1 12 C-0.67 8.04 -0.34 4.08 0 0 Z " fill="#6D7170" transform="translate(179,80)"/>
<path d="M0 0 C0.66 0 1.32 0 2 0 C2 1.65 2 3.3 2 5 C0.68 5.33 -0.64 5.66 -2 6 C-1.125 1.125 -1.125 1.125 0 0 Z " fill="#962024" transform="translate(180,57)"/>
<path d="M0 0 C3.3 0.99 6.6 1.98 10 3 C10 3.33 10 3.66 10 4 C7.03 4 4.06 4 1 4 C0.67 2.68 0.34 1.36 0 0 Z " fill="#672D30" transform="translate(163,49)"/>
<path d="M0 0 C1.98 0.495 1.98 0.495 4 1 C4 2.98 4 4.96 4 7 C3.34 7 2.68 7 2 7 C2 5.68 2 4.36 2 3 C1.01 3.33 0.02 3.66 -1 4 C-0.67 2.68 -0.34 1.36 0 0 Z " fill="#90252A" transform="translate(102,38)"/>
<path d="M0 0 C0.33 0 0.66 0 1 0 C1 2.64 1 5.28 1 8 C0.01 7.34 -0.98 6.68 -2 6 C-1.125 1.125 -1.125 1.125 0 0 Z " fill="#3F2122" transform="translate(81,95)"/>
<path d="M0 0 C1.65 0.33 3.3 0.66 5 1 C4.67 2.65 4.34 4.3 4 6 C3.34 5.67 2.68 5.34 2 5 C2 4.34 2 3.68 2 3 C1.01 2.67 0.02 2.34 -1 2 C-0.67 1.34 -0.34 0.68 0 0 Z " fill="#7D3B42" transform="translate(151,36)"/>
</svg>
